<?xml version="1.0" encoding="UTF-8"?>
<svg width="146px" height="41px" viewBox="0 0 146 41" version="1.1" xmlns="http://www.w3.org/2000/svg" xmlns:xlink="http://www.w3.org/1999/xlink">
    <!-- Generator: Sketch 43.2 (39069) - http://www.bohemiancoding.com/sketch -->
    <title>Group 3</title>
    <desc>Created with Sketch.</desc>
    <defs></defs>
    <g id="Page-1" stroke="none" stroke-width="1" fill="none" fill-rule="evenodd">
        <g id="Desktop" transform="translate(-23.000000, -22.000000)">
            <g id="Group-3" transform="translate(23.000000, 22.000000)">
                <path d="M0.272,29.6 L0.272,38 L1.232,38 L1.232,29.6 L0.272,29.6 Z M9.86,31.496 L10.436,30.8 C9.632,30.044 8.516,29.576 7.364,29.576 C4.928,29.576 2.984,31.436 2.984,33.788 C2.984,36.164 4.904,38.036 7.328,38.036 C8.492,38.036 9.62,37.544 10.448,36.764 L9.86,36.128 C9.2,36.752 8.3,37.136 7.376,37.136 C5.48,37.136 3.956,35.636 3.956,33.788 C3.956,31.928 5.48,30.452 7.376,30.452 C8.3,30.452 9.212,30.848 9.86,31.496 Z M15.788,29.576 C18.236,29.576 20.18,31.436 20.18,33.8 C20.18,36.164 18.236,38.036 15.788,38.036 C13.328,38.036 11.384,36.164 11.384,33.8 C11.384,31.436 13.328,29.576 15.788,29.576 Z M15.788,30.464 C13.916,30.464 12.356,31.94 12.356,33.8 C12.356,35.66 13.916,37.16 15.788,37.16 C17.66,37.16 19.196,35.66 19.196,33.8 C19.196,31.94 17.66,30.464 15.788,30.464 Z M28.832,31.652 C30.62,31.652 31.868,32.972 31.868,34.856 C31.868,36.728 30.644,38.036 28.856,38.036 C27.728,38.036 26.864,37.52 26.396,36.644 L26.396,40.328 L25.46,40.328 L25.46,31.688 L26.396,31.688 L26.396,33.044 C26.864,32.168 27.728,31.652 28.832,31.652 Z M28.664,37.208 C29.984,37.208 30.92,36.212 30.92,34.832 C30.92,33.464 29.984,32.456 28.664,32.456 C27.332,32.456 26.396,33.452 26.396,34.832 C26.396,36.224 27.332,37.208 28.664,37.208 Z M36.008,31.652 C38.048,31.652 39.056,33.056 38.96,35.192 L33.8,35.192 C33.956,36.44 34.856,37.256 36.092,37.256 C36.872,37.256 37.556,36.968 38.048,36.452 L38.564,36.992 C37.964,37.652 37.076,38.036 36.02,38.036 C34.16,38.036 32.876,36.728 32.876,34.844 C32.876,32.96 34.172,31.664 36.008,31.652 Z M33.8,34.448 L38.12,34.448 C38.06,33.224 37.244,32.432 36.008,32.432 C34.796,32.432 33.932,33.224 33.8,34.448 Z M41.504,33.092 L41.504,31.688 L40.568,31.688 L40.568,38 L41.504,38 L41.504,34.64 C41.612,33.368 42.44,32.54 43.772,32.564 L43.772,31.652 C42.704,31.664 41.924,32.168 41.504,33.092 Z M47.264,29.9 C46.652,29.888 46.148,30.308 46.148,31.052 L46.148,31.88 L47.96,31.88 L47.96,32.612 L46.148,32.612 L46.148,38 L45.224,38 L45.224,32.612 L44.408,32.612 L44.408,31.88 L45.224,31.88 L45.224,31.172 C45.224,29.804 46.196,29.048 47.252,29.06 C47.732,29.06 48.224,29.216 48.608,29.504 L48.224,30.224 C47.936,30.02 47.588,29.9 47.264,29.9 Z M51.488,31.652 C53.36,31.652 54.692,32.96 54.692,34.832 C54.692,36.716 53.36,38.036 51.488,38.036 C49.604,38.036 48.284,36.716 48.284,34.832 C48.284,32.96 49.604,31.652 51.488,31.652 Z M51.488,32.48 C50.156,32.48 49.22,33.452 49.22,34.844 C49.22,36.26 50.156,37.22 51.488,37.22 C52.808,37.22 53.756,36.26 53.756,34.844 C53.756,33.452 52.808,32.48 51.488,32.48 Z M57.272,33.092 L57.272,31.688 L56.336,31.688 L56.336,38 L57.272,38 L57.272,34.64 C57.38,33.368 58.208,32.54 59.54,32.564 L59.54,31.652 C58.472,31.664 57.692,32.168 57.272,33.092 Z M68.9,31.652 C67.688,31.664 66.8,32.192 66.404,33.296 C66.14,32.252 65.324,31.652 64.136,31.652 C62.996,31.664 62.144,32.132 61.724,33.116 L61.724,31.688 L60.8,31.688 L60.8,38 L61.724,38 L61.724,34.892 C61.724,33.524 62.504,32.576 63.8,32.54 C64.904,32.54 65.552,33.212 65.552,34.352 L65.552,38 L66.5,38 L66.5,34.892 C66.5,33.524 67.256,32.576 68.564,32.54 C69.656,32.54 70.316,33.212 70.316,34.352 L70.316,38 L71.252,38 L71.252,34.112 C71.252,32.576 70.376,31.652 68.9,31.652 Z M78.164,38 L77.252,38 L77.252,37.016 C76.748,37.7 75.944,38.036 74.936,38.036 C73.628,38.036 72.788,37.208 72.788,36.128 C72.788,35.024 73.664,34.328 75.152,34.316 L77.228,34.316 L77.228,33.92 C77.228,32.996 76.652,32.432 75.536,32.432 C74.84,32.432 74.192,32.696 73.532,33.164 L73.136,32.504 C73.952,31.964 74.636,31.652 75.716,31.652 C77.276,31.652 78.14,32.48 78.152,33.824 L78.164,38 Z M75.116,37.256 C76.184,37.256 77,36.728 77.24,35.828 L77.24,35.06 L75.272,35.06 C74.216,35.06 73.664,35.384 73.664,36.092 C73.664,36.788 74.228,37.256 75.116,37.256 Z M83.636,31.652 C82.484,31.664 81.632,32.12 81.188,33.08 L81.188,31.688 L80.252,31.688 L80.252,38 L81.188,38 L81.188,34.616 C81.296,33.392 82.064,32.564 83.312,32.552 C84.428,32.552 85.1,33.224 85.1,34.352 L85.1,38 L86.036,38 L86.036,34.112 C86.036,32.576 85.148,31.652 83.636,31.652 Z M92.54,33.236 L93.056,32.588 C92.48,32 91.64,31.652 90.62,31.652 C88.796,31.652 87.488,32.972 87.488,34.844 C87.488,36.728 88.784,38.036 90.62,38.036 C91.712,38.036 92.588,37.628 93.152,36.944 L92.612,36.392 C92.168,36.92 91.484,37.208 90.656,37.208 C89.348,37.208 88.412,36.248 88.412,34.844 C88.412,33.452 89.348,32.492 90.656,32.492 C91.424,32.492 92.06,32.768 92.54,33.236 Z M97.352,31.652 C99.392,31.652 100.4,33.056 100.304,35.192 L95.144,35.192 C95.3,36.44 96.2,37.256 97.436,37.256 C98.216,37.256 98.9,36.968 99.392,36.452 L99.908,36.992 C99.308,37.652 98.42,38.036 97.364,38.036 C95.504,38.036 94.22,36.728 94.22,34.844 C94.22,32.96 95.516,31.664 97.352,31.652 Z M95.144,34.448 L99.464,34.448 C99.404,33.224 98.588,32.432 97.352,32.432 C96.14,32.432 95.276,33.224 95.144,34.448 Z M108.512,36.848 C108.164,37.052 107.828,37.16 107.504,37.172 C106.964,37.172 106.664,36.86 106.664,36.092 L106.664,32.612 L108.668,32.612 L108.668,31.88 L106.664,31.88 L106.664,30.224 L105.74,30.224 L105.74,31.88 L104.828,31.88 L104.828,32.612 L105.74,32.612 L105.74,36.248 C105.74,37.496 106.424,38.048 107.348,38.036 C107.852,38.036 108.332,37.868 108.776,37.568 L108.512,36.848 Z M111.128,33.092 L111.128,31.688 L110.192,31.688 L110.192,38 L111.128,38 L111.128,34.64 C111.236,33.368 112.064,32.54 113.396,32.564 L113.396,31.652 C112.328,31.664 111.548,32.168 111.128,33.092 Z M119.492,38 L118.58,38 L118.58,37.016 C118.076,37.7 117.272,38.036 116.264,38.036 C114.956,38.036 114.116,37.208 114.116,36.128 C114.116,35.024 114.992,34.328 116.48,34.316 L118.556,34.316 L118.556,33.92 C118.556,32.996 117.98,32.432 116.864,32.432 C116.168,32.432 115.52,32.696 114.86,33.164 L114.464,32.504 C115.28,31.964 115.964,31.652 117.044,31.652 C118.604,31.652 119.468,32.48 119.48,33.824 L119.492,38 Z M116.444,37.256 C117.512,37.256 118.328,36.728 118.568,35.828 L118.568,35.06 L116.6,35.06 C115.544,35.06 114.992,35.384 114.992,36.092 C114.992,36.788 115.556,37.256 116.444,37.256 Z M125.996,33.236 L126.512,32.588 C125.936,32 125.096,31.652 124.076,31.652 C122.252,31.652 120.944,32.972 120.944,34.844 C120.944,36.728 122.24,38.036 124.076,38.036 C125.168,38.036 126.044,37.628 126.608,36.944 L126.068,36.392 C125.624,36.92 124.94,37.208 124.112,37.208 C122.804,37.208 121.868,36.248 121.868,34.844 C121.868,33.452 122.804,32.492 124.112,32.492 C124.88,32.492 125.516,32.768 125.996,33.236 Z M132.8,38 L133.916,38 L131.3,34.124 L133.664,31.688 L132.56,31.688 L129.308,34.964 L129.308,29.096 L128.372,29.096 L128.372,38 L129.308,38 L129.308,36.176 L130.64,34.796 L132.8,38 Z M137.684,31.652 C139.724,31.652 140.732,33.056 140.636,35.192 L135.476,35.192 C135.632,36.44 136.532,37.256 137.768,37.256 C138.548,37.256 139.232,36.968 139.724,36.452 L140.24,36.992 C139.64,37.652 138.752,38.036 137.696,38.036 C135.836,38.036 134.552,36.728 134.552,34.844 C134.552,32.96 135.848,31.664 137.684,31.652 Z M135.476,34.448 L139.796,34.448 C139.736,33.224 138.92,32.432 137.684,32.432 C136.472,32.432 135.608,33.224 135.476,34.448 Z M143.18,33.092 L143.18,31.688 L142.244,31.688 L142.244,38 L143.18,38 L143.18,34.64 C143.288,33.368 144.116,32.54 145.448,32.564 L145.448,31.652 C144.38,31.664 143.6,32.168 143.18,33.092 Z" id="ICO-performance-trac" fill="#7183AE"></path>
                <path d="M1.24,1.127 L1.24,20 L2.374,20 L2.374,1.127 L1.24,1.127 Z M22.57,4.502 L23.245,3.638 C21.49,2.072 19.141,1.1 16.603,1.1 C11.23,1.1 6.856,5.312 6.856,10.55 C6.856,15.788 11.23,20.027 16.603,20.027 C19.114,20.027 21.517,19.028 23.272,17.408 L22.57,16.625 C20.977,18.056 18.871,18.92 16.63,18.92 C11.851,18.92 7.99,15.167 7.99,10.523 C7.99,5.906 11.851,2.18 16.63,2.18 C18.871,2.18 21.004,3.044 22.57,4.502 Z M35.611,1.1 C41.011,1.1 45.385,5.312 45.385,10.55 C45.385,15.788 41.011,20.027 35.611,20.027 C30.211,20.027 25.837,15.788 25.837,10.55 C25.837,5.312 30.211,1.1 35.611,1.1 Z M35.611,2.207 C30.886,2.207 26.998,5.933 26.998,10.55 C26.998,15.167 30.886,18.92 35.611,18.92 C40.336,18.92 44.224,15.167 44.224,10.55 C44.224,5.933 40.336,2.207 35.611,2.207 Z" id="ICO" fill="#F6F6F6"></path>
                <path d="M67.525,7.796 L69.793,3.044 C67.66,1.694 64.555,0.803 61.558,0.803 C56.644,0.803 53.458,3.179 53.458,6.959 C53.458,13.601 63.259,11.981 63.259,14.438 C63.259,15.113 62.665,15.41 61.747,15.41 C59.83,15.41 56.482,14.087 54.538,12.467 L52.216,17.165 C54.727,19.082 58.399,20.189 61.693,20.189 C65.959,20.189 69.658,18.326 69.658,14.114 C69.658,7.256 59.857,8.741 59.857,6.365 C59.857,5.798 60.316,5.582 61.018,5.582 C62.665,5.582 65.608,6.743 67.525,7.796 Z M70.063,1.073 L87.1,1.073 L87.1,6.014 L81.7,6.014 L81.7,20 L75.436,20 L75.436,6.014 L70.063,6.014 L70.063,1.073 Z M102.409,20 L101.464,17.327 L94.363,17.327 L93.391,20 L86.965,20 L94.957,1.073 L101.383,1.073 L109.078,20 L102.409,20 Z M95.983,12.845 L99.925,12.845 L97.981,7.31 L95.983,12.845 Z M108.943,1.073 L125.98,1.073 L125.98,6.014 L120.58,6.014 L120.58,20 L114.316,20 L114.316,6.014 L108.943,6.014 L108.943,1.073 Z M141.64,7.796 L143.908,3.044 C141.775,1.694 138.67,0.803 135.673,0.803 C130.759,0.803 127.573,3.179 127.573,6.959 C127.573,13.601 137.374,11.981 137.374,14.438 C137.374,15.113 136.78,15.41 135.862,15.41 C133.945,15.41 130.597,14.087 128.653,12.467 L126.331,17.165 C128.842,19.082 132.514,20.189 135.808,20.189 C140.074,20.189 143.773,18.326 143.773,14.114 C143.773,7.256 133.972,8.741 133.972,6.365 C133.972,5.798 134.431,5.582 135.133,5.582 C136.78,5.582 139.723,6.743 141.64,7.796 Z" id="STATS" fill="#F6F6F6"></path>
            </g>
        </g>
    </g>
</svg>