<svg width="112" height="40" viewBox="0 0 112 40" xmlns="http://www.w3.org/2000/svg">
  <title>
    Logo
  </title>
  <path d="M60.32 23.828c-.483.506-1.05.908-1.688 1.194-.634.285-1.32.43-2.044.43s-1.407-.14-2.03-.41c-.624-.274-1.173-.655-1.632-1.134-.463-.483-.837-1.05-1.112-1.687-.274-.63-.412-1.31-.412-2.03s.14-1.41.412-2.053c.276-.65.65-1.22 1.112-1.703.46-.48 1.01-.86 1.633-1.134.62-.273 1.3-.41 2.02-.41s1.4.143 2.02.427c.63.288 1.192.68 1.68 1.167l.22.22 2.442-2.41-.228-.22c-.795-.784-1.723-1.41-2.758-1.86-1.04-.456-2.18-.686-3.385-.686-1.203 0-2.347.23-3.4.69-1.046.46-1.973 1.084-2.755 1.856-.785.773-1.415 1.7-1.87 2.75-.46 1.05-.69 2.185-.69 3.37s.23 2.315.69 3.356c.456 1.036 1.085 1.96 1.87 2.745.78.785 1.71 1.41 2.76 1.857 1.05.445 2.192.672 3.396.672 1.205 0 2.35-.23 3.4-.682 1.047-.45 1.98-1.077 2.775-1.86l.227-.22-2.44-2.457-.22.232zM67.25 3.93c-.62 0-1.153.212-1.585.632-.435.423-.655.953-.655 1.577 0 .62.22 1.15.655 1.57.43.42.964.63 1.584.63.61 0 1.15-.217 1.58-.63.43-.428.65-.958.65-1.58s-.22-1.157-.66-1.58c-.43-.42-.965-.633-1.583-.633zM65.5 28.29h3.498V12.04H65.5v16.25zm14.184-6.232L74.89 12.04h-3.676l8.224 16.777h.495L88.12 12.04h-3.676l-4.76 10.018zm12.423-18.11c-.62 0-1.152.212-1.584.632-.435.422-.655.953-.655 1.576 0 .625.22 1.155.655 1.577.43.42.964.633 1.584.633.618 0 1.15-.213 1.583-.633.435-.423.656-.953.656-1.577 0-.623-.22-1.153-.656-1.577-.432-.42-.965-.64-1.583-.64zm-1.75 24.36h3.5v-16.25h-3.5v16.25zm18.673-4.712l-.22.232c-.485.506-1.053.908-1.69 1.194-.633.285-1.32.43-2.043.43-.724 0-1.407-.14-2.03-.41-.624-.274-1.174-.655-1.633-1.134-.462-.483-.836-1.05-1.112-1.687-.273-.63-.412-1.31-.412-2.03s.14-1.41.413-2.06c.275-.642.65-1.22 1.11-1.7.46-.48 1.01-.86 1.635-1.13.622-.273 1.305-.41 2.03-.41.72 0 1.4.143 2.023.427.63.29 1.2.68 1.68 1.167l.22.22 2.45-2.412-.222-.222c-.795-.78-1.722-1.405-2.757-1.86-1.04-.452-2.177-.682-3.382-.682s-2.35.233-3.4.693c-1.046.46-1.974 1.084-2.756 1.856-.782.777-1.412 1.7-1.87 2.75-.46 1.054-.69 2.19-.69 3.374s.23 2.314.69 3.355c.46 1.035 1.087 1.96 1.87 2.744.784.784 1.71 1.41 2.76 1.856 1.05.45 2.195.676 3.4.676 1.2 0 2.347-.23 3.398-.685 1.048-.45 1.98-1.077 2.775-1.86l.227-.22-2.445-2.454zM21.96 21.53c1.55-.76 2.618-2.36 2.618-4.208 0-2.585-2.09-4.68-4.666-4.68-2.578 0-4.667 2.095-4.667 4.68 0 1.85 1.068 3.447 2.62 4.208v5.78h4.095v-5.78zm-2.048 13.427c-8.235 0-14.934-6.72-14.934-14.982 0-8.26 6.7-14.98 14.934-14.98 6.72 0 12.416 4.475 14.285 10.61h5.147C37.358 6.675 29.412 0 19.912 0 8.915 0 0 8.943 0 19.975 0 31.007 8.915 39.95 19.912 39.95c9.5 0 17.446-6.675 19.432-15.605h-5.147c-1.87 6.136-7.565 10.612-14.285 10.612z" fill="#FFF" fill-rule="evenodd"/>
</svg>
