<svg class="coindash-icon" viewBox="0 0 270 270" version="1.1" xmlns="http://www.w3.org/2000/svg" xmlns:xlink="http://www.w3.org/1999/xlink">
  <path fill="#fff" id="C" d="M151.342637,156.354321 C144.30644,167.345679 132.02086,174.649383 118.00523,174.649383 C96.1389705,174.649383 78.4102715,156.914815 78.4102715,135.037037 C78.4102715,113.158025 96.1389705,95.4234568 118.00523,95.4234568 C132.02086,95.4234568 144.30644,102.72716 151.342637,113.717284 L179.422024,113.717284 C170.597779,88.2740741 146.442473,70 118.00523,70 C82.1048302,70 53,99.117284 53,135.037037 C53,170.955556 82.1048302,200.071605 118.00523,200.071605 C146.442473,200.071605 170.597779,181.798765 179.422024,156.354321 L151.342637,156.354321 Z">
  </path>
  <path fill="#fff" id="D" d="M217.712363,134.758025 C217.712363,189.764198 172.982783,234.514815 118,234.514815 L118,209.092593 C154.701257,209.092593 185.165942,182.462963 191.196439,147.469136 L155.474968,147.469136 C156.827418,143.475309 157.596192,139.209877 157.596192,134.758025 C157.596192,130.303704 156.827418,126.040741 155.474968,122.045679 L191.196439,122.045679 C185.165942,87.0518519 154.701257,60.4234568 118,60.4234568 L118,35 C172.982783,35 217.712363,79.7506173 217.712363,134.758025 L217.712363,134.758025 Z"></path>
</svg>
