<?xml version="1.0" encoding="utf-8"?>
<!-- Generator: Adobe Illustrator 19.2.1, SVG Export Plug-In . SVG Version: 6.00 Build 0)  -->
<svg version="1.1" id="Layer_1" xmlns="http://www.w3.org/2000/svg" xmlns:xlink="http://www.w3.org/1999/xlink" x="0px" y="0px"
	 viewBox="0 0 312 96.2" style="enable-background:new 0 0 312 96.2;" xml:space="preserve">
<style type="text/css">
	.st0{fill:url(#SVGID_1_);}
	.st1{fill:#FF8F1C;}
	.st2{fill:url(#SVGID_2_);}
	.st3{fill:#FFFFFF;}
</style>
<g>
	<linearGradient id="SVGID_1_" gradientUnits="userSpaceOnUse" x1="51.4645" y1="40.9725" x2="51.4645" y2="108.2101">
		<stop  offset="0" style="stop-color:#FF0029"/>
		<stop  offset="1" style="stop-color:#AB00FF"/>
	</linearGradient>
	<polygon class="st0" points="23.5,96.2 51.5,68.2 79.5,96.2 79.5,79.5 51.5,51.5 23.5,79.5 23.5,79.5 23.5,79.5 	"/>
	<polygon class="st1" points="0,39.6 39.6,39.6 51.5,51.5 11.9,51.5 11.9,51.5 11.9,51.5 	"/>
	<linearGradient id="SVGID_2_" gradientUnits="userSpaceOnUse" x1="38.5848" y1="3.5804" x2="103.2863" y2="73.8813">
		<stop  offset="0" style="stop-color:#FF9100"/>
		<stop  offset="0.5153" style="stop-color:#FF0029"/>
		<stop  offset="1" style="stop-color:#AB00FF"/>
	</linearGradient>
	<polygon class="st2" points="102.9,39.6 63.3,39.6 63.3,11.9 51.5,0 51.5,51.5 91.1,51.5 91.1,51.5 91.1,51.5 	"/>
	<g>
		<g>
			<path class="st3" d="M126.6,16.5h11.7v40.2h15.8l4.3,11.6h-31.8V16.5z"/>
			<path class="st3" d="M174.7,54.9l7.6-23h11.7l-18.4,49.9h-11.7l5-13.4l-13.4-36.4h11.7L174.7,54.9z"/>
			<path class="st3" d="M208.9,68.3h-11V16.5h11v31.9l11.9-16.6h12.7l-12.3,17.3l14.2,19.2h-13l-13.5-18.1V68.3z"/>
			<path class="st3" d="M249.8,68.3h-11V16.5h11v31.9l11.9-16.6h12.7L262,49.1l14.2,19.2h-13l-13.5-18.1V68.3z"/>
			<path class="st3" d="M275.6,50.1c0-10.7,7.6-18.8,18.8-18.8c9.3,0,17.6,6,17.6,17.6c0,1-0.1,2.1-0.2,3.2h-25.6
				c0.6,4.9,4.7,6.8,7.9,6.8c3.9,0,6.3-1.9,7.8-4.6l8.7,5.9c-3.4,5.2-9.3,8.7-16.5,8.7C284.6,68.9,275.6,61.3,275.6,50.1z
				 M301.1,45.6l-0.1-0.4c-0.7-3.6-3.9-5.1-7.3-5.1c-2.6,0-6.4,1.2-7.4,5.5H301.1z"/>
		</g>
	</g>
</g>
</svg>
