<svg id="Layer_1" data-name="Layer 1" xmlns="http://www.w3.org/2000/svg" viewBox="0 0 1323.33 400"><defs><style>.cls-1,.cls-2{fill:#fff;}.cls-2{stroke:#fff;stroke-miterlimit:10;}</style></defs><title>logo</title><rect class="cls-1" x="0.5" y="1" width="29" height="398.5"/><path class="cls-1" d="M29,1.5V399H1V1.5H29m1-1H0V400H30V.5Z" transform="translate(0 0)"/><rect class="cls-2" x="113.64" y="67.42" width="30.86" height="260.17"/><rect class="cls-1" x="241.3" y="136.33" width="29.2" height="125.34"/><path class="cls-1" d="M270,136.83V261.17H241.8V136.83H270m1-1H240.8V262.17H271V135.83Z" transform="translate(0 0)"/><rect class="cls-1" x="362.45" y="0.5" width="29.05" height="398.5"/><path class="cls-1" d="M391,1V398.5H363V1h28m1-1H362V399.5h30V0Z" transform="translate(0 0)"/><path class="cls-2" d="M796,307.3H770.85V217q0-25.34-7.59-37.4t-22.47-12.06q-15.46,0-27.62,11.9t-17.32,30.76V307.3H670.66V217q0-26-7.44-37.71t-22.33-11.75q-15.18,0-27.48,11.59t-17.46,30.76V307.3H570.75V145.94h22.9v34.62q9.16-17.93,23.76-27.67a58,58,0,0,1,32.92-9.74q18.89,0,29.92,11t13.6,28.29q20-39.25,57-39.26,12.88,0,21.61,5.1a37.49,37.49,0,0,1,13.88,14.22A69.07,69.07,0,0,1,793.75,184,148,148,0,0,1,796,210.86Z" transform="translate(0 0)"/><path class="cls-2" d="M900.82,310.39a71.29,71.29,0,0,1-30.92-6.65,73.27,73.27,0,0,1-24-18.08,83.53,83.53,0,0,1-15.6-26.74,93.52,93.52,0,0,1-5.58-32.3,92.25,92.25,0,0,1,5.58-32.15A82.6,82.6,0,0,1,846,167.89a75,75,0,0,1,24.19-18.08,71.29,71.29,0,0,1,30.92-6.65,69.06,69.06,0,0,1,30.77,6.8A73.56,73.56,0,0,1,955.49,168a81.32,81.32,0,0,1,15,26.28,92.66,92.66,0,0,1,5.3,31.07q0,3.41-.14,6.18a36.3,36.3,0,0,1-.43,4.33h-124a66.61,66.61,0,0,0,5.15,21.95,56.58,56.58,0,0,0,11.16,17A51.35,51.35,0,0,0,883.21,286a43.61,43.61,0,0,0,18.46,4,45.75,45.75,0,0,0,13.45-2,55.88,55.88,0,0,0,12.31-5.41,43.22,43.22,0,0,0,10.16-8.35,34.45,34.45,0,0,0,6.73-11.13l21.76,6.49A59.84,59.84,0,0,1,955.92,286,68.55,68.55,0,0,1,941,298.8a75,75,0,0,1-40.22,11.59Zm51.24-94.59a61.84,61.84,0,0,0-5.3-21.18,56.75,56.75,0,0,0-11.16-16.54A49.73,49.73,0,0,0,920,167.42a48.12,48.12,0,0,0-37.79,0,48.36,48.36,0,0,0-15.6,10.82,54.87,54.87,0,0,0-10.88,16.54,64.69,64.69,0,0,0-5,21Z" transform="translate(0 0)"/><path class="cls-2" d="M1079.45,299.27q-2.29,1.24-6,2.94t-8.45,3.4a69.7,69.7,0,0,1-10.3,2.78,61,61,0,0,1-11.59,1.08,36.36,36.36,0,0,1-23.76-8.19q-10-8.19-10-25.5V167.27H989V145.94h20.33V92.15h25.19v53.79H1068v21.33H1034.5V267.43q.57,9,5.44,13a17.41,17.41,0,0,0,11.45,4,34.27,34.27,0,0,0,13.6-2.63,56.82,56.82,0,0,0,8.45-4.17Z" transform="translate(0 0)"/><path class="cls-2" d="M1141.56,310.39a54,54,0,0,1-20.61-3.86A50.83,50.83,0,0,1,1104.63,296a47.39,47.39,0,0,1-10.74-15.77,49,49,0,0,1-3.86-19.32,47.12,47.12,0,0,1,4.58-20.87,45.61,45.61,0,0,1,13-16.08,61,61,0,0,1,20-10.2,86.21,86.21,0,0,1,25.33-3.55,115.91,115.91,0,0,1,22,2.16,96,96,0,0,1,19.75,5.87v-13q0-19.78-10.31-31.07t-29.2-11.28q-22.62,0-47.52,18.86l-8.3-17.62a121.65,121.65,0,0,1,28.91-15.77,85.73,85.73,0,0,1,29.77-5.26q28.62,0,45.23,17t16.6,47.92v65.84q0,9.58,8,9.89V307.3q-2.86.62-5.44.93a41.81,41.81,0,0,1-4.87.31,23.17,23.17,0,0,1-12.31-3.71q-6-3.71-6.58-12.67l-.57-11.44a66.75,66.75,0,0,1-11.74,13,70.42,70.42,0,0,1-29.34,14.84A67.88,67.88,0,0,1,1141.56,310.39Zm6.3-20.4a53.15,53.15,0,0,0,23.47-5.56q11.44-5.56,18-13.6,5.43-6.8,5.44-12.67v-23.8a100.62,100.62,0,0,0-18.75-5.72,95.59,95.59,0,0,0-19-2q-19.47,0-31.2,8.5t-11.74,23.34a31.65,31.65,0,0,0,2.29,11.9,29.79,29.79,0,0,0,6.58,10,32,32,0,0,0,10.59,7A36.84,36.84,0,0,0,1147.86,290Z" transform="translate(0 0)"/><path class="cls-2" d="M1261.22,81.64h25.19V265.57q0,9,4.44,14.07t12.45,5.1a30.94,30.94,0,0,0,7.44-1.08,56.91,56.91,0,0,0,8-2.63l4,21.95a77.55,77.55,0,0,1-14.89,4.64,73,73,0,0,1-15.17,1.85q-14.6,0-23-9t-8.44-25Z" transform="translate(0 0)"/></svg>