<?xml version="1.0" encoding="UTF-8"?>
<svg width="60px" height="68px" viewBox="0 0 60 68" version="1.1" xmlns="http://www.w3.org/2000/svg" xmlns:xlink="http://www.w3.org/1999/xlink">
    <!-- Generator: Sketch 44.1 (41455) - http://www.bohemiancoding.com/sketch -->
    <title>storj</title>
    <desc>Created with Sketch.</desc>
    <defs></defs>
    <g id="Page-1" stroke="none" stroke-width="1" fill="none" fill-rule="evenodd">
        <g id="Artboard" transform="translate(-164.000000, -108.000000)" fill-rule="nonzero" fill="#FFFFFF">
            <g id="storj" transform="translate(164.000000, 108.000000)">
                <g id="Group">
                    <path d="M59.7916583,19.5744724 C59.7376884,21.6826131 58.8226131,23.2537688 57.0566834,24.3126633 C56.7307538,24.5074372 56.6176884,24.7058291 56.618593,25.0772864 C56.6297487,30.8282412 56.6288442,36.5794975 56.6201005,42.3292462 C56.6194975,42.6747739 56.7075377,42.8831156 57.0244221,43.0655276 C59.0674372,44.2462312 60.1013065,46.4240201 59.7343719,48.7133668 C59.3825126,50.9071357 57.6289447,52.7092462 55.3573869,53.1407035 C54.040402,53.3918593 52.7647236,53.1919598 51.6105528,52.4837186 C51.2586935,52.2684422 51.0108543,52.3064322 50.681005,52.4963819 C45.7371859,55.3601005 40.7879397,58.2162814 35.8329648,61.061608 C35.4940704,61.2566834 35.3671357,61.4707538 35.3680402,61.8663317 C35.3731658,64.6332663 33.2375879,67.0411055 30.5698492,67.3094472 C27.7284422,67.5961809 25.2162814,65.8106533 24.6024121,63.0533668 C24.5083417,62.6294472 24.4766834,62.1862312 24.4670352,61.7523618 C24.459799,61.458392 24.378392,61.278392 24.1169849,61.1270352 C19.0935678,58.2373869 14.0743719,55.340804 9.05728643,52.44 C8.78562814,52.2817085 8.5721608,52.2805025 8.29809045,52.4463317 C5.01979899,54.4196985 0.841507538,52.5280402 0.146231156,48.8415075 C-0.292462312,46.5126633 0.655477387,44.3351759 2.73979899,43.1086432 C3.06904523,42.9141709 3.21798995,42.7184925 3.21738693,42.3159799 C3.20231156,36.5644221 3.20472362,30.8140704 3.21376884,25.0634171 C3.21407035,24.7178894 3.12422111,24.5134673 2.8079397,24.3298492 C0.715477387,23.1144724 -0.268944724,21.0027136 0.132964824,18.6316583 C0.532160804,16.2762814 2.35356784,14.5483417 4.7240201,14.2106533 C5.99457286,14.0300503 7.2198995,14.261608 8.31919598,14.9635176 C8.57457286,15.1269347 8.76422111,15.121809 9.0241206,14.9719598 C14.0264322,12.0771859 19.0326633,9.19055276 24.0428141,6.31055276 C24.3458291,6.13628141 24.4640201,5.93638191 24.4649246,5.57939698 C24.4730653,2.4120603 26.9758794,-0.0126633166 30.1471357,0.0515577889 C32.6188945,0.101005025 34.9317588,2.14130653 35.2824121,4.58050251 C35.3143719,4.80482412 35.3647236,4.94291457 35.3647236,5.25165829 C35.3647236,5.9279397 35.6137688,6.21467337 36.140201,6.51557789 C41.0017085,9.29728643 45.8496482,12.1007035 50.6942714,14.9089447 C51.0271357,15.1025126 51.2689447,15.1103518 51.6156784,14.9137688 C54.9063317,13.0368844 58.8961809,14.8356784 59.6972864,18.5496482 C59.7726633,18.8951759 59.7654271,19.258794 59.7916583,19.5744724 L59.7916583,19.5744724 Z M16.8907538,39.3030151 C16.841005,39.3461307 16.8075377,39.3823116 16.7659296,39.4055276 C14.038794,40.9815075 11.3137688,42.560201 8.57668342,44.1174874 C8.42532663,44.2034171 8.13135678,44.1856281 7.97758794,44.0927638 C7.25427136,43.6561809 6.4839196,43.3661307 5.64090452,43.3435176 C2.83628141,43.2717588 1.13065327,45.5626131 1.03477387,47.5528643 C0.923819095,49.8841206 2.68763819,52.2720603 5.54020101,52.2506533 C8.04180905,52.2319598 9.94552764,50.2260302 9.92080402,47.7232161 C9.91688442,47.2760804 10.0483417,47.0231156 10.440603,46.8003015 C13.3471357,45.1453266 16.2419095,43.4704523 19.1339698,41.7913568 C19.4134673,41.6282412 19.638392,41.601407 19.9426131,41.7449246 C21.7462312,42.5927638 23.6113568,42.7362814 25.5340704,42.1926633 C25.7252261,42.138995 25.9790955,42.1932663 26.1702513,42.2749749 C26.7355779,42.5155779 27.2755779,42.8213065 27.8445226,43.0498492 C28.1689447,43.1813065 28.278392,43.3582915 28.2777889,43.7029146 C28.2678392,48.2360804 28.2687437,52.7680402 28.2768844,57.3009045 C28.2771859,57.620804 28.1764824,57.8029146 27.8849246,57.9425126 C26.3574874,58.678794 25.2048241,60.578593 25.5192965,62.6104523 C25.8841206,64.9709548 28.3091457,66.7534673 30.6494472,66.2957789 C32.7111558,65.8932663 34.0655276,64.4855276 34.3555779,62.3201005 C34.5518593,60.8514573 33.8454271,58.9127638 31.9567839,57.9419095 C31.7005025,57.8110553 31.5590955,57.6678392 31.56,57.3530653 C31.5693467,52.9501508 31.5702513,48.5472362 31.56,44.1452261 C31.56,43.7538693 31.7396985,43.6736683 32.0825126,43.6130653 C32.9870352,43.4544724 33.8936683,43.2792965 34.7776884,43.0311558 C35.1777889,42.918995 35.4937688,42.9030151 35.8815075,43.0700503 C37.8198995,43.9037186 39.7070352,43.7611055 41.5124623,42.6714573 C41.7702513,42.5170854 41.9550754,42.5101508 42.2137688,42.661206 C44.5986935,44.0499497 46.9875377,45.4329648 49.3872362,46.7951759 C49.7755779,47.0149749 49.9254271,47.2579899 49.9139698,47.7126633 C49.8446231,50.3472362 52.141809,52.499397 54.8201005,52.2138693 C57.4495477,51.9343719 59.3125628,49.4035176 58.7026131,46.8443216 C57.9714573,43.7773869 54.6494472,42.3934673 51.9660302,44.0511558 C51.6832161,44.2254271 51.478794,44.2730653 51.1769849,44.0963819 C48.9063317,42.7697487 46.6302513,41.4521608 44.3448241,40.1511558 C44.0068342,39.9590955 43.9619095,39.780603 44.0695477,39.4184925 C44.758794,37.0962814 44.2902513,35.0303518 42.6274372,33.2511558 C42.3024121,32.9032161 40.7773869,30.4679397 40.5648241,30.018995 C40.3965829,29.6638191 40.4680402,29.4741709 40.8063317,29.28 C44.2715578,27.2954774 47.7316583,25.301005 51.1857286,23.2971859 C51.4640201,23.1364824 51.6527638,23.1337688 51.9259296,23.3170854 C52.8994975,23.9704523 53.9909548,24.1772864 55.1360804,23.9767839 C57.3651256,23.5860302 58.980603,21.5689447 58.7819095,19.1879397 C58.5657286,16.6049246 56.0321608,14.6740704 53.501608,15.2342714 C51.281005,15.7260302 49.8859296,17.4615075 49.9115578,19.7430151 C49.9151759,20.1316583 49.8072362,20.3532663 49.4605025,20.5516583 C45.9515578,22.559397 42.4513568,24.5807035 38.9574874,26.6140704 C38.6424121,26.7970854 38.4702513,26.7590955 38.2166834,26.5148744 C36.5704523,24.9289447 34.5895477,24.0382915 32.3297487,23.7557789 C31.5669347,23.6598995 31.5666332,23.6638191 31.5666332,22.8765829 C31.5663317,18.7501508 31.5765829,14.6237186 31.5542714,10.4975879 C31.5512563,9.92170854 31.6857286,9.5879397 32.2254271,9.27798995 C34.160201,8.16633166 34.8955779,5.77326633 34.0103518,3.73266332 C33.1175879,1.67427136 30.8369849,0.574673367 28.6980905,1.22623116 C26.7512563,1.81929648 25.6661307,3.19447236 25.4752764,5.1958794 C25.3284422,6.74020101 26.058995,8.45577889 27.821608,9.41909548 C28.0923618,9.56683417 28.2811055,9.69678392 28.2798995,10.0682412 C28.2654271,14.6176884 28.2663317,19.1662312 28.2777889,23.7156784 C28.278392,24.0762814 28.1140704,24.198392 27.8201005,24.3473367 C26.94,24.7908543 25.9956784,25.1788945 25.2485427,25.7969849 C24.3865327,26.5082412 23.5809045,26.9194975 22.3809045,26.9194975 C22.2639196,26.9158794 22.1885427,26.9270352 22.0667337,26.9246231 C21.7694472,26.9182915 21.4353769,26.9059296 21.1920603,26.7669347 C17.6526633,24.7483417 14.1316583,22.6965829 10.5877387,20.6846231 C10.0815075,20.3975879 9.83728643,20.0897487 9.92170854,19.5066332 C9.95547739,19.2741709 9.88371859,19.0251256 9.84572864,18.7857286 C9.4998995,16.6061307 7.36824121,14.7829146 4.79517588,15.2056281 C2.27095477,15.6211055 0.668140704,17.9053266 1.08482412,20.3502513 C1.6160804,23.4726633 5.17929648,25.0531658 7.86753769,23.3451256 C8.17085427,23.1524623 8.38070352,23.1373869 8.69155779,23.318593 C11.3556784,24.8725628 14.0309548,26.4081407 16.7026131,27.9497487 C17.160603,28.2141709 17.6167839,28.480402 18.0717588,28.7445226 C15.0027136,31.9965829 14.6580905,35.4895477 16.8907538,39.3030151 L16.8907538,39.3030151 Z" id="Shape"></path>
                    <path d="M24.2719598,28.7945729 C24.9744724,28.8566834 25.3239196,28.620603 25.8370854,28.1436181 C28.0525628,26.0846231 30.6663317,25.4472362 33.5360804,26.4003015 C36.3575879,27.3373869 38.1072362,29.3424121 38.6867337,32.2839196 C38.8001005,32.859799 39.0268342,33.2062312 39.541206,33.499598 C41.0125628,34.3374874 41.8594975,36.1501508 41.5688442,37.6601005 C41.1916583,39.6153769 39.9096482,40.9709548 38.0969849,41.2582915 C37.1309548,41.4123618 36.1727638,41.3017085 35.3231156,40.7788945 C34.9423116,40.5440201 34.6411055,40.5696482 34.2476382,40.7342714 C31.7240201,41.7955779 29.28,41.6152764 26.9568844,40.1544724 C26.600201,39.9292462 26.3017085,39.9117588 25.9154774,40.038392 C22.6420101,41.1078392 19.2373869,39.2499497 18.4061307,35.9858291 C17.4536683,32.2426131 20.4394975,28.6236181 24.2719598,28.7945729 L24.2719598,28.7945729 Z" id="Shape"></path>
                    <path d="M53.1084422,47.8067337 C53.1084422,47.0743719 53.6345729,46.5425126 54.3551759,46.5440201 C55.0489447,46.5476382 55.640201,47.120201 55.6471357,47.7979899 C55.6546734,48.4504523 55.0230151,49.0815075 54.3654271,49.0827136 C53.661407,49.0827136 53.1087437,48.5222111 53.1084422,47.8067337 L53.1084422,47.8067337 Z" id="Shape"></path>
                    <path d="M28.6492462,5.49949749 C28.6519598,4.79035176 29.2049246,4.24311558 29.9194975,4.24251256 C30.6352764,4.24190955 31.1840201,4.7879397 31.1867337,5.49979899 C31.1885427,6.18241206 30.5924623,6.78603015 29.9219095,6.77758794 C29.240201,6.77095477 28.6471357,6.17457286 28.6492462,5.49949749 L28.6492462,5.49949749 Z" id="Shape"></path>
                    <path d="M6.72663317,47.8118593 C6.7239196,48.5267337 6.16643216,49.0884422 5.46603015,49.0827136 C4.80422111,49.0763819 4.19246231,48.459196 4.18944724,47.7928643 C4.18613065,47.1271357 4.79155779,46.5440201 5.48623116,46.5440201 C6.20592965,46.5446231 6.72934673,47.079196 6.72663317,47.8118593 L6.72663317,47.8118593 Z" id="Shape"></path>
                    <path d="M29.9333668,60.6551759 C30.6473367,60.66 31.1897487,61.2030151 31.1864322,61.9097487 C31.1819095,62.6137688 30.6313568,63.1441206 29.9077387,63.139598 C29.1901508,63.1359799 28.641407,62.5890452 28.6492462,61.8844221 C28.6573869,61.1837186 29.2166834,60.6497487 29.9333668,60.6551759 L29.9333668,60.6551759 Z" id="Shape"></path>
                    <path d="M5.50040201,20.840804 C4.77678392,20.8471357 4.21115578,20.319799 4.18974874,19.620603 C4.16834171,18.939196 4.74060302,18.3672362 5.45396985,18.3569849 C6.19869347,18.3458291 6.7160804,18.8421106 6.72663317,19.5762814 C6.73778894,20.3140704 6.23276382,20.8341709 5.50040201,20.840804 L5.50040201,20.840804 Z" id="Shape"></path>
                    <path d="M54.3394975,20.8426131 C53.6080402,20.8374874 53.101206,20.3164824 53.1084422,19.5786935 C53.1156784,18.8463317 53.6345729,18.3482412 54.3792965,18.3578894 C55.0932663,18.3678392 55.661608,18.9346734 55.6447236,19.6196985 C55.6278392,20.3137688 55.0582915,20.8477387 54.3394975,20.8426131 L54.3394975,20.8426131 Z" id="Shape"></path>
                </g>
            </g>
        </g>
    </g>
</svg>